<svg width="48" height="48" viewBox="0 0 48 48" fill="none" xmlns="http://www.w3.org/2000/svg">
<path fill-rule="evenodd" clip-rule="evenodd" d="M7.34998 20.28H36.12C36.48 20.28 36.81 20.43 37.08 20.7L41.64 25.38C42.48 26.25 41.88 27.72 40.68 27.72H11.91C11.55 27.72 11.22 27.57 10.95 27.3L6.38998 22.62C5.54998 21.75 6.14998 20.28 7.34998 20.28ZM6.38998 14.07L10.95 9.38997C11.19 9.11997 11.55 8.96997 11.91 8.96997H40.65C41.85 8.96997 42.45 10.44 41.61 11.31L37.08 15.99C36.84 16.26 36.48 16.41 36.12 16.41H7.34998C6.14998 16.41 5.54998 14.94 6.38998 14.07ZM41.61 33.9L37.05 38.58C36.78 38.85 36.45 39 36.09 39H7.34998C6.14998 39 5.54998 37.53 6.38998 36.66L10.95 31.98C11.19 31.71 11.55 31.56 11.91 31.56H40.65C41.85 31.56 42.45 33.03 41.61 33.9Z" fill="black"/>
</svg>
