<svg width="48" height="48" viewBox="0 0 48 48" fill="none" xmlns="http://www.w3.org/2000/svg">
<path d="M12 38C10.3387 38 8.92333 37.4153 7.754 36.246C6.58467 35.0767 6 33.6613 6 32V16C6 14.3387 6.58467 12.9233 7.754 11.754C8.92333 10.5847 10.3387 10 12 10H36C37.6613 10 39.0767 10.5847 40.246 11.754C41.4153 12.9233 42 14.3387 42 16V32C42 33.6613 41.4153 35.0767 40.246 36.246C39.0767 37.4153 37.6613 38 36 38H12ZM12 17H36C36.7853 17 37.5173 17.1347 38.196 17.404C38.8747 17.6733 39.476 18.068 40 18.588V16C40 14.9 39.6087 13.9587 38.826 13.176C38.0433 12.3933 37.1013 12.0013 36 12H12C10.9 12 9.95867 12.392 9.176 13.176C8.39333 13.96 8.00133 14.9013 8 16V18.588C8.52267 18.068 9.124 17.6733 9.804 17.404C10.484 17.1347 11.216 17 12 17ZM8.068 22.46L30.742 27.978C30.9913 28.0447 31.2467 28.0507 31.508 27.996C31.7693 27.9427 31.9947 27.8287 32.184 27.654L39.634 21.354C39.3447 20.6487 38.8713 20.08 38.214 19.648C37.5567 19.216 36.8187 19 36 19H12C10.9787 19 10.0987 19.3273 9.36 19.982C8.62 20.638 8.19 21.4647 8.07 22.462" fill="black"/>
</svg>
